STARTFONT 2.1
COMMENT
COMMENT Converted from OpenType font "..\..\ttf\Wizzard.ttf" by "otf2bdf.exe 3.0".
COMMENT
FONT -FreeType-Wizzard-Medium-R-Normal--15-110-100-100-P-50-ISO10646-1
SIZE 11 100 100
FONTBOUNDINGBOX 9 12 0 -3
STARTPROPERTIES 19
FOUNDRY "FreeType"
FAMILY_NAME "Wizzard"
WEIGHT_NAME "Medium"
SLANT "R"
SETWIDTH_NAME "Normal"
ADD_STYLE_NAME ""
PIXEL_SIZE 15
POINT_SIZE 110
RESOLUTION_X 100
RESOLUTION_Y 100
SPACING "P"
AVERAGE_WIDTH 50
CHARSET_REGISTRY "ISO10646"
CHARSET_ENCODING "1"
FONT_ASCENT 9
FONT_DESCENT 2
COPYRIGHT "pentacom"
_OTF_FONTFILE "..\..\ttf\Wizzard.ttf"
_OTF_PSNAME "Wizzard"
ENDPROPERTIES
CHARS 96
STARTCHAR 0020
ENCODING 32
SWIDTH 327 0
DWIDTH 5 0
BBX 0 0 0 0
BITMAP
ENDCHAR
STARTCHAR 0021
ENCODING 33
SWIDTH 196 0
DWIDTH 3 0
BBX 1 8 1 0
BITMAP
80
80
80
80
80
80
00
80
ENDCHAR
STARTCHAR 0022
ENCODING 34
SWIDTH 261 0
DWIDTH 4 0
BBX 3 3 0 5
BITMAP
A0
A0
A0
ENDCHAR
STARTCHAR 0023
ENCODING 35
SWIDTH 458 0
DWIDTH 7 0
BBX 6 8 0 0
BITMAP
28
28
FC
50
50
FC
50
50
ENDCHAR
STARTCHAR 0024
ENCODING 36
SWIDTH 392 0
DWIDTH 6 0
BBX 5 9 0 0
BITMAP
20
70
A8
A0
70
28
A8
70
20
ENDCHAR
STARTCHAR 0025
ENCODING 37
SWIDTH 654 0
DWIDTH 10 0
BBX 8 8 1 0
BITMAP
44
A4
A8
48
12
15
25
22
ENDCHAR
STARTCHAR 0026
ENCODING 38
SWIDTH 523 0
DWIDTH 8 0
BBX 7 8 0 0
BITMAP
30
48
48
30
52
8C
8C
72
ENDCHAR
STARTCHAR 0027
ENCODING 39
SWIDTH 130 0
DWIDTH 2 0
BBX 1 3 0 5
BITMAP
80
80
80
ENDCHAR
STARTCHAR 0028
ENCODING 40
SWIDTH 261 0
DWIDTH 4 0
BBX 3 10 0 -2
BITMAP
20
40
40
80
80
80
80
40
40
20
ENDCHAR
STARTCHAR 0029
ENCODING 41
SWIDTH 261 0
DWIDTH 4 0
BBX 3 10 0 -2
BITMAP
80
40
40
20
20
20
20
40
40
80
ENDCHAR
STARTCHAR 002A
ENCODING 42
SWIDTH 392 0
DWIDTH 6 0
BBX 5 3 0 4
BITMAP
A8
70
A8
ENDCHAR
STARTCHAR 002B
ENCODING 43
SWIDTH 392 0
DWIDTH 6 0
BBX 5 5 0 1
BITMAP
20
20
F8
20
20
ENDCHAR
STARTCHAR 002C
ENCODING 44
SWIDTH 196 0
DWIDTH 3 0
BBX 2 3 0 -2
BITMAP
40
40
80
ENDCHAR
STARTCHAR 002D
ENCODING 45
SWIDTH 261 0
DWIDTH 4 0
BBX 3 1 0 2
BITMAP
E0
ENDCHAR
STARTCHAR 002E
ENCODING 46
SWIDTH 196 0
DWIDTH 3 0
BBX 1 1 1 0
BITMAP
80
ENDCHAR
STARTCHAR 002F
ENCODING 47
SWIDTH 261 0
DWIDTH 4 0
BBX 3 9 0 -1
BITMAP
20
20
20
40
40
40
80
80
80
ENDCHAR
STARTCHAR 0030
ENCODING 48
SWIDTH 392 0
DWIDTH 6 0
BBX 5 8 0 0
BITMAP
70
88
88
88
88
88
88
70
ENDCHAR
STARTCHAR 0031
ENCODING 49
SWIDTH 327 0
DWIDTH 5 0
BBX 3 8 1 0
BITMAP
20
60
A0
20
20
20
20
20
ENDCHAR
STARTCHAR 0032
ENCODING 50
SWIDTH 392 0
DWIDTH 6 0
BBX 5 8 0 0
BITMAP
70
88
08
10
20
40
80
F8
ENDCHAR
STARTCHAR 0033
ENCODING 51
SWIDTH 392 0
DWIDTH 6 0
BBX 5 8 0 0
BITMAP
70
88
08
30
08
08
88
70
ENDCHAR
STARTCHAR 0034
ENCODING 52
SWIDTH 458 0
DWIDTH 7 0
BBX 6 8 0 0
BITMAP
08
18
28
48
88
FC
08
08
ENDCHAR
STARTCHAR 0035
ENCODING 53
SWIDTH 392 0
DWIDTH 6 0
BBX 5 8 0 0
BITMAP
F8
80
80
F0
08
08
88
70
ENDCHAR
STARTCHAR 0036
ENCODING 54
SWIDTH 392 0
DWIDTH 6 0
BBX 5 8 0 0
BITMAP
70
88
80
F0
88
88
88
70
ENDCHAR
STARTCHAR 0037
ENCODING 55
SWIDTH 392 0
DWIDTH 6 0
BBX 5 8 0 0
BITMAP
F8
08
10
10
20
20
40
40
ENDCHAR
STARTCHAR 0038
ENCODING 56
SWIDTH 392 0
DWIDTH 6 0
BBX 5 8 0 0
BITMAP
70
88
88
70
88
88
88
70
ENDCHAR
STARTCHAR 0039
ENCODING 57
SWIDTH 392 0
DWIDTH 6 0
BBX 5 8 0 0
BITMAP
70
88
88
88
78
08
08
70
ENDCHAR
STARTCHAR 003A
ENCODING 58
SWIDTH 196 0
DWIDTH 3 0
BBX 1 5 1 0
BITMAP
80
00
00
00
80
ENDCHAR
STARTCHAR 003B
ENCODING 59
SWIDTH 196 0
DWIDTH 3 0
BBX 2 7 0 -2
BITMAP
40
00
00
00
40
40
80
ENDCHAR
STARTCHAR 003C
ENCODING 60
SWIDTH 458 0
DWIDTH 7 0
BBX 6 5 0 1
BITMAP
0C
30
C0
30
0C
ENDCHAR
STARTCHAR 003D
ENCODING 61
SWIDTH 392 0
DWIDTH 6 0
BBX 5 3 0 2
BITMAP
F8
00
F8
ENDCHAR
STARTCHAR 003E
ENCODING 62
SWIDTH 458 0
DWIDTH 7 0
BBX 6 5 0 1
BITMAP
C0
30
0C
30
C0
ENDCHAR
STARTCHAR 003F
ENCODING 63
SWIDTH 392 0
DWIDTH 6 0
BBX 5 8 0 0
BITMAP
70
88
88
10
20
20
00
20
ENDCHAR
STARTCHAR 0040
ENCODING 64
SWIDTH 654 0
DWIDTH 10 0
BBX 8 8 1 -1
BITMAP
3C
42
9D
A5
A5
9E
41
3E
ENDCHAR
STARTCHAR 0041
ENCODING 65
SWIDTH 523 0
DWIDTH 8 0
BBX 7 8 0 0
BITMAP
10
10
28
28
44
7C
82
82
ENDCHAR
STARTCHAR 0042
ENCODING 66
SWIDTH 458 0
DWIDTH 7 0
BBX 5 8 1 0
BITMAP
F0
88
88
F0
88
88
88
F0
ENDCHAR
STARTCHAR 0043
ENCODING 67
SWIDTH 523 0
DWIDTH 8 0
BBX 7 8 0 0
BITMAP
3C
42
80
80
80
80
42
3C
ENDCHAR
STARTCHAR 0044
ENCODING 68
SWIDTH 523 0
DWIDTH 8 0
BBX 6 8 1 0
BITMAP
F0
88
84
84
84
84
88
F0
ENDCHAR
STARTCHAR 0045
ENCODING 69
SWIDTH 458 0
DWIDTH 7 0
BBX 5 8 1 0
BITMAP
F8
80
80
F0
80
80
80
F8
ENDCHAR
STARTCHAR 0046
ENCODING 70
SWIDTH 458 0
DWIDTH 7 0
BBX 5 8 1 0
BITMAP
F8
80
80
F0
80
80
80
80
ENDCHAR
STARTCHAR 0047
ENCODING 71
SWIDTH 523 0
DWIDTH 8 0
BBX 7 8 0 0
BITMAP
3C
42
80
80
8E
82
42
3C
ENDCHAR
STARTCHAR 0048
ENCODING 72
SWIDTH 523 0
DWIDTH 8 0
BBX 6 8 1 0
BITMAP
84
84
84
FC
84
84
84
84
ENDCHAR
STARTCHAR 0049
ENCODING 73
SWIDTH 196 0
DWIDTH 3 0
BBX 1 8 1 0
BITMAP
80
80
80
80
80
80
80
80
ENDCHAR
STARTCHAR 004A
ENCODING 74
SWIDTH 327 0
DWIDTH 5 0
BBX 4 8 0 0
BITMAP
10
10
10
10
10
10
90
60
ENDCHAR
STARTCHAR 004B
ENCODING 75
SWIDTH 523 0
DWIDTH 8 0
BBX 6 8 1 0
BITMAP
88
90
A0
C0
A0
90
88
84
ENDCHAR
STARTCHAR 004C
ENCODING 76
SWIDTH 458 0
DWIDTH 7 0
BBX 5 8 1 0
BITMAP
80
80
80
80
80
80
80
F8
ENDCHAR
STARTCHAR 004D
ENCODING 77
SWIDTH 589 0
DWIDTH 9 0
BBX 7 8 1 0
BITMAP
82
C6
C6
AA
AA
92
92
82
ENDCHAR
STARTCHAR 004E
ENCODING 78
SWIDTH 458 0
DWIDTH 7 0
BBX 5 8 1 0
BITMAP
88
C8
C8
A8
A8
98
98
88
ENDCHAR
STARTCHAR 004F
ENCODING 79
SWIDTH 523 0
DWIDTH 8 0
BBX 7 8 0 0
BITMAP
38
44
82
82
82
82
44
38
ENDCHAR
STARTCHAR 0050
ENCODING 80
SWIDTH 458 0
DWIDTH 7 0
BBX 5 8 1 0
BITMAP
F0
88
88
88
F0
80
80
80
ENDCHAR
STARTCHAR 0051
ENCODING 81
SWIDTH 523 0
DWIDTH 8 0
BBX 7 8 0 0
BITMAP
38
44
82
82
82
82
4C
3E
ENDCHAR
STARTCHAR 0052
ENCODING 82
SWIDTH 523 0
DWIDTH 8 0
BBX 6 8 1 0
BITMAP
F8
84
84
84
F8
90
88
84
ENDCHAR
STARTCHAR 0053
ENCODING 83
SWIDTH 458 0
DWIDTH 7 0
BBX 5 8 1 0
BITMAP
70
88
80
60
10
08
88
70
ENDCHAR
STARTCHAR 0054
ENCODING 84
SWIDTH 392 0
DWIDTH 6 0
BBX 5 8 0 0
BITMAP
F8
20
20
20
20
20
20
20
ENDCHAR
STARTCHAR 0055
ENCODING 85
SWIDTH 523 0
DWIDTH 8 0
BBX 6 8 1 0
BITMAP
84
84
84
84
84
84
84
78
ENDCHAR
STARTCHAR 0056
ENCODING 86
SWIDTH 523 0
DWIDTH 8 0
BBX 7 8 0 0
BITMAP
82
82
44
44
28
28
10
10
ENDCHAR
STARTCHAR 0057
ENCODING 87
SWIDTH 654 0
DWIDTH 10 0
BBX 9 8 0 0
BITMAP
8880
8880
8880
5500
5500
5500
2200
2200
ENDCHAR
STARTCHAR 0058
ENCODING 88
SWIDTH 458 0
DWIDTH 7 0
BBX 5 8 1 0
BITMAP
88
50
50
20
20
50
50
88
ENDCHAR
STARTCHAR 0059
ENCODING 89
SWIDTH 392 0
DWIDTH 6 0
BBX 5 8 0 0
BITMAP
88
88
50
50
20
20
20
20
ENDCHAR
STARTCHAR 005A
ENCODING 90
SWIDTH 458 0
DWIDTH 7 0
BBX 6 8 0 0
BITMAP
FC
04
08
10
20
40
80
FC
ENDCHAR
STARTCHAR 005B
ENCODING 91
SWIDTH 261 0
DWIDTH 4 0
BBX 2 10 1 -2
BITMAP
C0
80
80
80
80
80
80
80
80
C0
ENDCHAR
STARTCHAR 005C
ENCODING 92
SWIDTH 261 0
DWIDTH 4 0
BBX 3 9 0 -1
BITMAP
80
80
80
40
40
40
20
20
20
ENDCHAR
STARTCHAR 005D
ENCODING 93
SWIDTH 196 0
DWIDTH 3 0
BBX 2 10 0 -2
BITMAP
C0
40
40
40
40
40
40
40
40
C0
ENDCHAR
STARTCHAR 005E
ENCODING 94
SWIDTH 392 0
DWIDTH 6 0
BBX 5 5 0 3
BITMAP
20
50
50
88
88
ENDCHAR
STARTCHAR 005F
ENCODING 95
SWIDTH 458 0
DWIDTH 7 0
BBX 6 1 0 -2
BITMAP
FC
ENDCHAR
STARTCHAR 0060
ENCODING 96
SWIDTH 196 0
DWIDTH 3 0
BBX 2 2 0 6
BITMAP
80
40
ENDCHAR
STARTCHAR 0061
ENCODING 97
SWIDTH 392 0
DWIDTH 6 0
BBX 5 5 0 0
BITMAP
70
88
78
88
78
ENDCHAR
STARTCHAR 0062
ENCODING 98
SWIDTH 458 0
DWIDTH 7 0
BBX 5 8 1 0
BITMAP
80
80
80
F0
88
88
88
F0
ENDCHAR
STARTCHAR 0063
ENCODING 99
SWIDTH 392 0
DWIDTH 6 0
BBX 5 5 0 0
BITMAP
70
88
80
88
70
ENDCHAR
STARTCHAR 0064
ENCODING 100
SWIDTH 392 0
DWIDTH 6 0
BBX 5 8 0 0
BITMAP
08
08
08
78
88
88
88
78
ENDCHAR
STARTCHAR 0065
ENCODING 101
SWIDTH 392 0
DWIDTH 6 0
BBX 5 5 0 0
BITMAP
70
88
F8
80
78
ENDCHAR
STARTCHAR 0066
ENCODING 102
SWIDTH 261 0
DWIDTH 4 0
BBX 3 8 0 0
BITMAP
20
40
40
E0
40
40
40
40
ENDCHAR
STARTCHAR 0067
ENCODING 103
SWIDTH 392 0
DWIDTH 6 0
BBX 5 7 0 -2
BITMAP
78
88
88
88
78
08
70
ENDCHAR
STARTCHAR 0068
ENCODING 104
SWIDTH 458 0
DWIDTH 7 0
BBX 5 8 1 0
BITMAP
80
80
80
F0
88
88
88
88
ENDCHAR
STARTCHAR 0069
ENCODING 105
SWIDTH 196 0
DWIDTH 3 0
BBX 1 7 1 0
BITMAP
80
00
80
80
80
80
80
ENDCHAR
STARTCHAR 006A
ENCODING 106
SWIDTH 196 0
DWIDTH 3 0
BBX 2 9 0 -2
BITMAP
40
00
40
40
40
40
40
40
80
ENDCHAR
STARTCHAR 006B
ENCODING 107
SWIDTH 392 0
DWIDTH 6 0
BBX 4 8 1 0
BITMAP
80
80
80
90
A0
C0
A0
90
ENDCHAR
STARTCHAR 006C
ENCODING 108
SWIDTH 196 0
DWIDTH 3 0
BBX 1 8 1 0
BITMAP
80
80
80
80
80
80
80
80
ENDCHAR
STARTCHAR 006D
ENCODING 109
SWIDTH 589 0
DWIDTH 9 0
BBX 7 5 1 0
BITMAP
EC
92
92
92
92
ENDCHAR
STARTCHAR 006E
ENCODING 110
SWIDTH 458 0
DWIDTH 7 0
BBX 5 5 1 0
BITMAP
F0
88
88
88
88
ENDCHAR
STARTCHAR 006F
ENCODING 111
SWIDTH 392 0
DWIDTH 6 0
BBX 5 5 0 0
BITMAP
70
88
88
88
70
ENDCHAR
STARTCHAR 0070
ENCODING 112
SWIDTH 458 0
DWIDTH 7 0
BBX 5 7 1 -2
BITMAP
F0
88
88
88
F0
80
80
ENDCHAR
STARTCHAR 0071
ENCODING 113
SWIDTH 392 0
DWIDTH 6 0
BBX 5 7 0 -2
BITMAP
78
88
88
88
78
08
08
ENDCHAR
STARTCHAR 0072
ENCODING 114
SWIDTH 392 0
DWIDTH 6 0
BBX 4 5 1 0
BITMAP
B0
C0
80
80
80
ENDCHAR
STARTCHAR 0073
ENCODING 115
SWIDTH 327 0
DWIDTH 5 0
BBX 4 5 0 0
BITMAP
70
80
60
10
E0
ENDCHAR
STARTCHAR 0074
ENCODING 116
SWIDTH 261 0
DWIDTH 4 0
BBX 3 7 0 0
BITMAP
40
40
E0
40
40
40
20
ENDCHAR
STARTCHAR 0075
ENCODING 117
SWIDTH 458 0
DWIDTH 7 0
BBX 5 5 1 0
BITMAP
88
88
88
88
78
ENDCHAR
STARTCHAR 0076
ENCODING 118
SWIDTH 392 0
DWIDTH 6 0
BBX 5 5 0 0
BITMAP
88
88
50
50
20
ENDCHAR
STARTCHAR 0077
ENCODING 119
SWIDTH 523 0
DWIDTH 8 0
BBX 7 5 0 0
BITMAP
92
92
AA
44
44
ENDCHAR
STARTCHAR 0078
ENCODING 120
SWIDTH 392 0
DWIDTH 6 0
BBX 5 5 0 0
BITMAP
88
50
20
50
88
ENDCHAR
STARTCHAR 0079
ENCODING 121
SWIDTH 392 0
DWIDTH 6 0
BBX 5 7 0 -2
BITMAP
88
88
50
50
20
20
C0
ENDCHAR
STARTCHAR 007A
ENCODING 122
SWIDTH 392 0
DWIDTH 6 0
BBX 5 5 0 0
BITMAP
F8
10
20
40
F8
ENDCHAR
STARTCHAR 007B
ENCODING 123
SWIDTH 261 0
DWIDTH 4 0
BBX 3 11 0 -3
BITMAP
20
40
40
40
40
80
40
40
40
40
20
ENDCHAR
STARTCHAR 007C
ENCODING 124
SWIDTH 196 0
DWIDTH 3 0
BBX 1 10 1 -2
BITMAP
80
80
80
80
80
80
80
80
80
80
ENDCHAR
STARTCHAR 007D
ENCODING 125
SWIDTH 261 0
DWIDTH 4 0
BBX 3 11 0 -3
BITMAP
80
40
40
40
40
20
40
40
40
40
80
ENDCHAR
STARTCHAR 007E
ENCODING 126
SWIDTH 392 0
DWIDTH 6 0
BBX 4 2 1 3
BITMAP
50
A0
ENDCHAR
STARTCHAR 00A0
ENCODING 160
SWIDTH 327 0
DWIDTH 5 0
BBX 0 0 0 0
BITMAP
ENDCHAR
ENDFONT
